<svg id="skaylink_logo" xmlns="http://www.w3.org/2000/svg" width="186.798" height="46.506" viewBox="0 0 186.798 46.506">
        <path id="Pfad_10" data-name="Pfad 10" d="M84.211,81.543c0,5.633-4.316,8.709-11.782,8.709-9.628,0-13.308-4.275-13.569-9.7h7.9c.266,2.662,2.053,3.966,5.366,3.966,2.365,0,3.68-.786,3.68-2.294,0-2.294-2.529-2.608-6.782-3.548-4.578-.99-9.628-2.658-9.628-8.236,0-4.852,4.215-8.55,11.782-8.55,8.625,0,11.993,4.325,12.254,9.018H75.544c-.266-2.135-1.421-3.285-4.156-3.285-2.365,0-3.575.836-3.575,2.14,0,1.876,1.686,1.926,5.838,2.812C78.963,73.724,84.211,75.5,84.211,81.543Z" transform="translate(-58.86 -52.137)"></path>
        <path id="Pfad_11" data-name="Pfad 11" d="M131.281,38.55V58.157l7.891-9.022h10.045L139.7,59.164l10.614,16.665h-9.986l-6.361-10.635-2.685,2.762v7.873H122.85V38.55Z" transform="translate(-95.876 -38.55)"></path>
        <path id="Pfad_12" data-name="Pfad 12" d="M199.421,67.623c-3.048,0-4.523,1.149-4.784,3.7H186.75c.261-5.111,3.941-9.436,12.726-9.436,7.588,0,11.8,2.925,11.8,11.312V85.454c0,1.408.527,1.981,1.577,1.981v1.981a13.387,13.387,0,0,1-4.89.836c-3.794,0-4.839-1.772-4.839-3.648h-.105a11.546,11.546,0,0,1-8.469,3.648c-5.678,0-8.852-3.18-8.852-7.664,0-5.32,3.946-7.768,10.256-9.022,3.469-.677,6.892-1.2,6.892-3.439C202.844,68.564,201.739,67.623,199.421,67.623Zm3.423,12.043v-3.23a27.9,27.9,0,0,1-4.316,1.2c-3.313.727-4.418,2.089-4.418,3.761,0,2.19,1.315,3.13,3.372,3.13C201.107,84.5,202.844,82.224,202.844,79.667Z" transform="translate(-132.233 -52.137)"></path>
        <path id="Pfad_13" data-name="Pfad 13" d="M263.526,91.092c-2.314,6.832-4.839,8.709-10.538,8.709a22.638,22.638,0,0,1-4.679-.522V93.01h.105c2.314.522,4.215.259,5.1-1.095.788-1.2.632-2.871-.211-5.215L244.54,63.88h8.431l6.1,17.518h.105l5.1-17.518H272.7Z" transform="translate(-166.27 -53.295)"></path>
        <path id="Pfad_14" data-name="Pfad 14" d="M322.881,38.55V75.829H314.45V38.55Z" transform="translate(-206.711 -38.55)"></path>
        <path id="Pfad_15" data-name="Pfad 15" d="M341.56,42.252c0-2.4,1.842-3.7,4.215-3.7s4.215,1.3,4.215,3.7-1.842,3.7-4.215,3.7S341.56,44.705,341.56,42.252Zm8.431,6.882V75.829H341.56V49.135Z" transform="translate(-222.393 -38.55)"></path>
        <path id="Pfad_16" data-name="Pfad 16" d="M394.525,71.376v18.04h-8.431V74.055c0-4.016-1.421-5.37-4.215-5.37-3.212,0-5.058,1.613-5.058,5.315V89.433H368.39V62.722h8.431v3.857h.105c1.421-2.449,4.047-4.689,8.852-4.689C390.988,61.89,394.525,65.279,394.525,71.376Z" transform="translate(-237.913 -52.137)"></path>
        <path id="Pfad_17" data-name="Pfad 17" d="M445.271,38.55V58.157l7.887-9.022h10.049l-9.522,10.029,10.623,16.665h-9.99l-6.365-10.635-2.681,2.762v7.873H436.84V38.55Z" transform="translate(-277.509 -38.55)"></path>
      </svg>